<?xml version="1.0" encoding="UTF-8" standalone="no"?>
<!-- Created with Inkscape (http://www.inkscape.org/) -->

<svg
   width="256"
   height="192"
   viewBox="0 0 67.733332 50.8"
   version="1.1"
   id="svg1"
   xml:space="preserve"
   inkscape:version="1.4.2 (2aeb623e1d, 2025-05-12)"
   sodipodi:docname="castell-coch.svg"
   xmlns:inkscape="http://www.inkscape.org/namespaces/inkscape"
   xmlns:sodipodi="http://sodipodi.sourceforge.net/DTD/sodipodi-0.dtd"
   xmlns:xlink="http://www.w3.org/1999/xlink"
   xmlns="http://www.w3.org/2000/svg"
   xmlns:svg="http://www.w3.org/2000/svg"><sodipodi:namedview
     id="namedview1"
     pagecolor="#000000"
     bordercolor="#666666"
     borderopacity="1.0"
     inkscape:showpageshadow="2"
     inkscape:pageopacity="0.0"
     inkscape:pagecheckerboard="0"
     inkscape:deskcolor="#d1d1d1"
     inkscape:document-units="mm"
     inkscape:zoom="3.0617724"
     inkscape:cx="119.212"
     inkscape:cy="101.08524"
     inkscape:window-width="1920"
     inkscape:window-height="1011"
     inkscape:window-x="0"
     inkscape:window-y="0"
     inkscape:window-maximized="1"
     inkscape:current-layer="svg1"
     showgrid="false" /><defs
     id="defs1" /><g
     inkscape:label="Layer 1"
     inkscape:groupmode="layer"
     id="layer1"
     style="display:none;opacity:1"
     transform="translate(0,13.573125)"><image
       width="67.46875"
       height="45.016739"
       preserveAspectRatio="none"
       style="display:inline;image-rendering:optimizeQuality"
       xlink:href="../e813e23d/castell-coch-3.jpg"
       id="image1"
       x="2.8421709e-14"
       y="3.6512499" /></g><g
     inkscape:groupmode="layer"
     id="layer2"
     inkscape:label="Layer 2"
     style="display:inline;opacity:0.79;stroke:#ffffff;stroke-width:0.264583;stroke-dasharray:none;stroke-opacity:1"><path
       id="path30"
       style="font-variation-settings:normal;opacity:1;vector-effect:none;fill:none;fill-opacity:1;stroke:#ffffff;stroke-width:0.264583px;stroke-linecap:butt;stroke-linejoin:miter;stroke-miterlimit:4;stroke-dasharray:none;stroke-dashoffset:0;stroke-opacity:1;-inkscape-stroke:none"
       d="m 50.716896,45.095265 0.855467,-0.611047 0.366628,-0.488839 -0.122211,-0.794361 0.427733,-0.733256 0.611047,-0.244419 0.855467,-0.183314 0.977675,0.183314 1.099884,-0.427731 -0.366628,-1.099886 0.244419,-1.772036 0.305523,-1.222095 0.977675,-1.222092 1.466514,-0.244419 1.099883,0.305522 0.611047,-0.244417 h 0.91657 l 0.488839,0.183314 1.038778,-0.305525 0.36663,0.122211 1.344303,-0.549944 1.405409,0.183317 1.283197,0.549941 m -35.228391,14.233052 0.215402,-0.667811 0.427733,-0.91657 0.611045,-0.244419 0.672152,-1.160989 0.488839,-0.855464 0.733256,-0.24442 c 0,0 0.427733,-0.122208 0.488836,0.183314 0.06111,0.305522 0,1.344303 0,1.344303 l 0.855467,0.305525 1.160989,-0.24442 0.794361,-0.305524 1.038781,-0.794362 1.038778,-0.42773 1.344303,0.794361 0.855466,0.427731 1.772037,0.122211 1.649827,-1.160989 1.405406,-0.549945 1.099886,0.488839 0.91657,0.733256 1.099886,0.427733 1.099884,0.427733 m 13.015298,-14.298498 0.122211,-1.160989 0.488836,-0.672153 0.427734,-0.794361 0.305525,-0.122209 0.794361,-0.611047 1.017174,-0.100604 m -45.256974,16.9655 -0.427733,-1.222094 0.549942,-0.24442 0.244419,-1.038778 0.733256,-0.549941 h 1.222094 l 0.549942,0.305522 0.672152,0.06111 0.488838,-1.649828 0.91657,-1.222094 0.672152,-0.427733 0.977675,0.794361 0.488837,0.733258 0.427733,0.427733 h 0.91657 l 0.183314,1.222092 -0.733256,1.222095 h -0.794361 m 23.84775,-11.791466 0.388869,-0.777734 2.117169,-0.950566 1.339432,-0.08642 0.518491,-0.302453 1.123397,0.04321 m -20.912453,4.363964 -0.950565,0.518491 v 0.648112 l 0.345662,0.648113 -1.469057,-0.259244 -0.475284,0.475282 0.216038,0.691322 -1.036982,0.129622 -1.036979,0.345659 -0.129624,0.518491 m 5.78981,-0.993772 0.518491,-0.90736 0.950566,-0.302453 0.518491,-0.302453 -0.302453,-1.080188 0.475284,-1.382641 0.734528,-0.734528 0.820944,-0.34566 0.777735,-0.475284 0.993772,-0.259244 0.216038,-0.691322 0.691322,-0.172831 0.950565,0.04321 0.388869,0.432075 0.950566,0.561697 0.432075,-0.172828 1.166604,-0.820944 1.080188,-0.08642 0.734528,0.388869 m -9.203206,0.252151 0.0108,0.590399 m -1.253016,-0.486084 0.0108,0.596723 m -2.268394,1.380021 -0.0045,0.569561 m -1.248519,-0.515552 v 0.606441 m 10.116476,-2.799061 0.351353,-0.702704 0.15276,-0.412457 0.01527,-1.252646 0.09166,1.252646 0.168037,0.412457 0.427734,0.702704 m -4.971781,-1.685257 0.0432,-1.307027 0.226841,-0.01079 0.118822,2.073963 m -3.067731,-0.04322 -0.03242,-1.706698 0.194434,-0.02159 0.0108,1.339435 m -0.626495,0.874937 0.05401,-2.257592 h 0.194434 m -0.540095,2.506037 0.06482,-2.46283 0.216037,-0.02159 m -0.442884,6.869985 0.02159,-4.234338 0.496901,-0.194434 1.080188,-0.08641 h 1.404246 1.015377 l 0.34566,0.04321 -0.410472,-0.669717 -0.777735,-1.425849 -0.496887,-1.080188 -0.194434,-1.015378 -0.108019,-1.49066 -0.08642,1.620283 -0.151226,0.97217 -1.188208,2.46283 -0.928976,0.864151 m -1.555454,1.469048 0.08642,-1.447453 h 0.151227 l 0.06481,1.404244 z m -1.036981,-0.151227 1.4e-5,-0.324058 0.367264,-0.259243 m -1.080201,1.036982 0.06481,-1.685095 h 0.129624 l 0.06481,1.361038 m -0.388869,0.410469 0.475285,-0.5833 0.972169,-1.901132 0.237641,-0.626509 0.08641,-0.648113 -0.02162,-0.842547 v 0.820944 l 0.151228,0.604903 0.345659,0.756132 0.561697,0.648115 h 0.08642 v 0.172829 l 0.475284,0.453681 M 36.6616,38.022638 v -3.046132 l -0.06587,-0.01765 3.414455,-0.09037 m 3.893537,-4.530004 0.641602,-0.09166 1.069332,0.03055 1.130434,-0.122208 0.213868,-0.152762 0.641599,-0.06111 0.274971,0.152762 1.191541,-0.06111 0.244419,-0.152763 h 0.183314 l 0.183314,0.152763 1.222094,-0.06111 0.76381,-0.122208 0.183314,0.03055 m -8.676867,0.549963 0.397181,-0.09166 h 0.305523 m -2.688606,0.24442 0.611047,-0.0611 m -34.4324963,3.024679 1.9553502,-0.274971 1.9553501,-0.274973 2.016455,-0.244417 1.588722,-0.183314 1.772036,-0.244419 2.138664,-0.305525 0.886019,-0.03055 1.527617,-0.213865 1.283199,-0.183314 0.336076,0.0611 0.213866,-0.183314 0.549942,-0.0611 0.549942,0.0611 0.824914,-0.15276 1.283198,-0.122211 0.427732,-0.183314 h 0.274971 l 0.519391,0.06111 1.894247,-0.06111 2.016453,-0.122208 1.863693,-0.03055 0.641599,0.03055 0.886018,-0.06111 1.558171,-0.03055 1.069332,-0.03055 h 0.794361 l 0.183314,0.03055 0.580495,-0.0611 0.886018,-0.03055 0.458285,-0.0611 M 0.24441878,31.9272 l 0.4582852,0.183316 0.48883762,0.244417 0.091657,-0.122208 0.6721516,0.06111 0.2138664,0.274971 0.6415992,0.0611 0.4582853,0.213868 h 0.5193901 l 0.4888375,0.305522 0.702704,0.06111 0.5499423,0.336076 0.5193897,-0.183314 0.4888376,0.244417 0.5499422,-0.15276 0.5499423,0.274971 0.8249134,0.15276 0.8249134,0.244419 0.3666281,-0.03055 0.7638083,0.51939 0.336076,-0.274971 0.611047,0.15276 0.427733,0.183314 0.733256,0.152762 0.152762,-0.244419 0.305524,0.336076 0.366628,-0.122208 0.458285,0.183314 0.702704,-0.183314 1.099885,0.122208 0.886017,0.213868 0.916571,0.305523 0.91657,0.366628 0.977675,0.336076 0.672152,0.122208 0.611047,0.03055 0.427733,0.336074 0.763809,0.397182 0.91657,0.366628 0.51939,0.152762 0.641599,-0.09166 0.580495,0.0611 0.580494,0.336077 0.305524,0.03055 0.03055,0.183314 0.152762,0.122208 0.366628,0.611047 m 22.384989,-6.827889 0.5617,-0.172831 0.302453,-0.561697 0.734528,-0.518491 0.734529,-0.08641 1.123394,-0.34566 0.216038,-0.259247 v -0.51849 l 0.475284,0.129624 0.86415,-0.432078 0.129622,-0.518488 0.734529,-0.08642 0.432075,-0.475285 1.123397,-0.561697 0.345659,-0.432075 0.90736,-0.129622 0.302453,-0.475284 0.475282,-0.388868 0.475284,-0.518491 0.86415,-0.432075 0.432075,-0.561698 1.080188,-0.475283 0.129625,0.216038 0.86415,-0.302453 0.129622,-0.216038 0.561697,-0.302453 h 0.5617 l 0.561697,-0.34566 0.604907,0.04321 0.691319,-0.388867 0.388869,0.259245 0.302453,-0.302453 0.388868,-0.302453 0.432076,0.388868 0.561697,-0.302453 0.08642,-0.259245 0.734529,-0.129622 m -20.782833,10.369806 0.604904,-0.34566 0.518491,-0.172828 m -47.78754337,13.027073 0.47528299,0.626509 0.77773578,-0.34566 0.086415,-0.432075 0.4320754,0.518491 h 0.7777357 l 0.6049057,0.691319 1.2098113,-1.20981 0.3456604,0.08642 0.6913205,-0.51849 h 0.5184907 l 0.4320755,-0.432075 1.2098112,0.08641 0.5184905,-0.777734 0.9505658,-0.172831 0.5184905,0.259246 1.7283024,-0.691322 0.34566,-0.432075 1.382641,-0.51849 0.259245,0.51849 0.345661,-0.51849 0.777736,-0.259245 1.036981,-0.08642 0.69132,-0.34566 1.209812,-0.172831 0.86415,0.172831 0.08642,0.518491 0.432075,-0.345662 H 20.0483 l 0.345661,0.691322 0.51849,-0.777735 h 0.432076 l 0.51849,-0.432078 0.259246,0.432078 1.123395,-0.604906 0.950567,-0.604907 1.036981,-0.259244 0.69132,-0.950566 1.296228,0.08641 0.604903,-0.691319 0.432075,-0.345659 0.691322,-0.432078 0.34566,-0.08641 0.604906,-0.08642 0.950566,0.518491 0.691322,-0.345662 0.518491,0.172831 0.86415,-0.950566 1.382641,-0.86415 1.123397,-0.34566 h 0.777735 0.345659 v 0"
       sodipodi:nodetypes="ccccccccccccccccccccccccccccccsccccccccccccccccccccccccccccccccccccccccccccccccccccccccccccccccccccccccccccccccccccccccccccccccccccccccccccccccccccccccccccccccccccccccccccccccccccccccccccccccccccccccccccccccccccccccccccccccccccccccccccccccccccccccccccccccccccccccccccccccccccccccccccccccccccccccccccccccccccccccccccccccccccccccccccccccccccccccccccccccccccccccccccccccccc" /></g><image
     width="84.536308"
     height="63.402233"
     preserveAspectRatio="none"
     xlink:href="../7b9b13f4/cc-screenshot.png"
     id="spectrumscreenshot"
     x="-8.4139872"
     y="-6.215127"
     style="display:inline;opacity:0.8"
     inkscape:svg-dpi="96" /></svg>
