<?xml version="1.0" encoding="UTF-8" standalone="no"?>
<!-- Created with Inkscape (http://www.inkscape.org/) -->

<svg
   width="256"
   height="192"
   viewBox="0 0 67.733332 50.8"
   version="1.1"
   id="svg1"
   xml:space="preserve"
   inkscape:version="1.4.2 (2aeb623e1d, 2025-05-12)"
   sodipodi:docname="london.svg"
   xmlns:inkscape="http://www.inkscape.org/namespaces/inkscape"
   xmlns:sodipodi="http://sodipodi.sourceforge.net/DTD/sodipodi-0.dtd"
   xmlns:xlink="http://www.w3.org/1999/xlink"
   xmlns="http://www.w3.org/2000/svg"
   xmlns:svg="http://www.w3.org/2000/svg"><sodipodi:namedview
     id="namedview1"
     pagecolor="#000000"
     bordercolor="#666666"
     borderopacity="1.0"
     inkscape:showpageshadow="2"
     inkscape:pageopacity="0.0"
     inkscape:pagecheckerboard="0"
     inkscape:deskcolor="#d1d1d1"
     inkscape:document-units="mm"
     inkscape:zoom="3.2809755"
     inkscape:cx="135.32561"
     inkscape:cy="104.69447"
     inkscape:window-width="1920"
     inkscape:window-height="1011"
     inkscape:window-x="0"
     inkscape:window-y="0"
     inkscape:window-maximized="1"
     inkscape:current-layer="layer2" /><defs
     id="defs1" /><g
     inkscape:label="Layer 1"
     inkscape:groupmode="layer"
     id="layer1"
     style="display:none;opacity:0.5"
     sodipodi:insensitive="true"><image
       width="67.73333"
       height="40.17923"
       preserveAspectRatio="none"
       style="image-rendering:optimizeQuality"
       xlink:href="../3361cd0d/Pasted%20image.png"
       id="image1-5"
       x="0"
       y="10.456225" /></g><g
     inkscape:groupmode="layer"
     id="layer2"
     inkscape:label="Layer 2"
     style="display:inline;opacity:0.79;stroke:#ffffff;stroke-width:0.264583;stroke-dasharray:none;stroke-opacity:1"><path
       id="path34"
       style="fill:none;stroke:#ffffff;stroke-width:0.26435px;stroke-linecap:butt;stroke-linejoin:miter;stroke-opacity:1"
       d="m 43.987029,46.302061 14.941801,0.08554 M 5.7075584,48.297865 H 1.7515386 m -1.65071325,2.280923 4.01294085,-0.05702 2.4191488,-0.171072 4.866758,-0.114045 4.354467,-0.39916 1.593793,-0.256605 0.426908,-0.171068 2.390688,-0.05702 1.309188,-0.313627 0.142302,-0.484696 -0.796896,-0.655766 -2.703754,-0.08554 -0.199225,-0.228092 h -1.309186 l -0.05692,-0.313628 -0.825357,-0.228093 -0.199223,-0.427673 h -3.756795 c 0,0 -0.227685,0.541721 -0.455371,0.655766 -0.227684,0.114047 -3.9844788,0.142559 -3.9844788,0.142559 m 20.1785438,0.684269 h -3.159124 l -2.902979,0.256605 m 18.214768,-0.370649 -8.025882,-0.08554 m 8.566633,-0.456188 0.08538,1.197486 m 15.226411,-1.254508 3.95602,1.197483 6.261326,0.142556 1.906857,-0.114044 m -21.886181,-0.712789 3.699874,0.142559 4.752916,0.08554 3.842178,0.142557 m 4.041401,-8.154292 -0.910736,0.114045 0.142301,2.42348 m 2.476071,-0.02851 -0.199225,-2.509014 -0.227684,-0.05702 -0.99612,0.08554 0.142302,2.680083 m 3.728335,0.114045 -0.597671,-0.541717 H 64.76325 l -0.654595,0.712786 m 3.443731,-0.798322 -1.366109,0.14256 m -6.823195,-4.652362 -0.221373,-2.197516 -0.06037,-0.725786 1.891718,-0.342729 3.360821,-0.383053 0.04025,0.947551 1.630099,-0.262089 0.181122,2.701533 0.321994,0.120964 0.523242,3.266031 0.301869,-0.02016 -0.26162,-2.499925 0.34212,-0.06048 -0.06037,-0.604819 0.321992,-0.08065 m -13.000535,5.765953 0.160996,-0.846749 0.804988,0.04032 -0.0805,-1.169318 -0.321995,-0.04032 0.04025,-0.362891 0.362246,-0.120964 0.04025,-0.564499 0.201247,0.04032 V 41.00621 H 56.6865 l 0.04025,0.403211 -0.281747,0.04032 0.04025,0.88707 0.724486,0.04032 0.281747,0.483858 1.569722,-0.483858 -0.201247,-3.46764 0.241499,-0.120963 -0.04025,-0.725783 2.213716,-0.403214 0.482989,-0.08064 m -11.632054,6.007881 v -0.362891 l 2.616206,-0.322571 h 1.12698 l 0.442745,0.08065 v 0.88707 m -10.263581,1.008036 0.804989,0.120963 h 0.925733 l 0.442742,0.443535 0.160999,-0.32257 1.086732,-0.201605 -0.201247,-1.895107 -0.321996,-2.016067 -0.120747,-0.80643 0.482992,-0.241927 0.563489,-0.120964 0.603742,-0.08065 -0.08049,-0.282247 1.529474,-0.161287 1.126983,-0.04032 0.201245,0.604819 -0.04025,1.45157 -0.04025,1.733818 m -19.722176,2.822494 1.167231,-0.08064 0.201248,0.241927 0.523242,-0.322571 0.603737,0.120965 0.362245,-0.201608 1.368477,-0.201608 0.160999,-0.524175 0.120747,0.564499 1.006233,0.362892 1.690471,-0.201608 0.523241,-0.120964 0.120747,-0.806426 0.160999,0.887069 0.201248,-0.08064 0.201247,0.241927 0.523239,-0.241927 0.321995,0.120964 m 3.05895,-4.233747 1.529476,1.653177 2.736953,1.774142 2.938201,1.008035 h 3.582191 l 2.414959,-0.766107 1.448974,-0.604822 m -14.570256,-1.77414 1.489226,1.290284 1.972217,1.128999 2.736953,1.008035 2.575958,0.241928 2.656454,-0.161287 1.609975,-0.685462 1.609973,-0.967713 m -14.731254,-3.346676 2.092965,1.6935 2.938202,1.532212 2.978448,1.088677 3.099201,-0.04032 2.133212,-0.88707 m -26.081566,1.673334 -0.462865,-0.483855 0.02012,-4.173262 10.3642,-0.201608 0.221373,4.717602 M 31.18855,48.566467 V 47.19554 m -3.360817,-0.645143 -4.286555,0.161285 -5.232412,0.342732 -2.012467,0.100806 m 14.650756,-0.80643 10.082456,0.04032 m -0.08049,0.907232 -2.253964,-0.504017 -2.797327,-0.221768 h -1.046484 l -2.11309,0.383054 -1.509349,0.30241 m 13.443275,-0.705625 0.04025,0.604823 0.382368,0.181445 v 0.564499 l -0.402494,0.06048 0.04025,0.524179 m -16.783967,0.08064 -0.100623,-2.358803 0.603739,-0.120963 0.181122,-0.544337 -0.120747,-4.959532 -0.120749,-0.08065 0.140874,-0.161284 -0.08049,-1.048357 0.140873,-0.806426 0.160996,0.786268 0.362246,-0.02016 0.261622,-1.532212 0.342116,1.51205 0.281748,-0.02016 0.160995,-0.967714 0.261622,1.048355 0.02012,1.028195 0.06037,0.08065 -0.120749,0.100802 v 0.181449 l 5.091541,-0.161287 -0.08049,-0.181446 0.201247,-0.02016 0.181124,0.181445 0.06037,-0.302409 0.201244,-0.02016 0.120751,0.342729 0.100622,-0.282247 0.160996,-0.02016 v 0.26209 l 4.346928,-0.100805 -0.02012,-0.846747 0.140873,-0.907231 0.241496,0.645142 0.120748,-0.443536 0.140872,-0.02016 0.181122,-1.028195 0.321994,1.290285 0.140875,-1.935427 0.704362,1.7943 0.281743,-0.04032 0.261622,-1.20964 0.30187,1.391087 v 0.725783 l 0.08049,0.100805 -0.08049,0.100803 0.221372,6.249814 m -15.21425,-4.455516 -1.308103,1.653176 -1.972216,1.774142 -2.032592,1.008034 -2.354585,0.322571 -2.696706,0.201608 -1.831344,-0.463698 -1.529476,-0.907231 m 0.160999,-0.483855 1.770969,1.028196 2.334462,0.483855 1.710597,-0.161284 2.193588,-0.826588 2.656456,-1.552374 1.931967,-1.552374 0.905611,-0.84675 m -9.761132,3.021692 2.106082,-0.128303 1.778787,0.213836 0.04269,0.256604 0.654592,0.114047 v 1.06918 l 0.811127,0.883858 0.01424,0.741301 m -14.4864402,-6.129978 1.0815022,-8.211318 0.149471,-0.01617 0.01007,0.84675 0.22137,-0.01008 -0.01007,-0.836669 0.171059,0.141125 1.046483,8.608616 m 2.168411,2.157829 0.796896,-0.456185 0.853818,-0.17107 0.967659,0.114049 1.252265,0.513206 1.024581,1.026414 0.455369,0.798322 0.284606,0.912371 M 0.01544363,40.827848 1.9507627,41.05594 l 0.796896,-0.684274 -0.056921,-0.741302 1.5937922,0.570232 v 0.741299 l 0.5122903,-0.05702 -0.056921,0.34214 h 0.398448 l -0.056922,0.741298 h 1.081502 l 0.056921,-0.285116 1.6507134,-0.285114 2.3906874,0.342138 0.455371,1.026415 0.910738,0.05702 -0.05692,-1.881761 0.56921,-0.228093 v 1.482601 h 0.398448 l 0.05692,0.741297 0.512291,-0.05702 -0.05692,0.798323 1.366107,0.114045 0.113842,2.737106" /></g></svg>
